# This file uses centimeters as units for non-parametric coordinates.

mtllib block_long.mtl
g default
v -0.592686 -0.406128 2.498424
v -0.487468 -0.511346 2.498424
v 0.422525 -0.511346 2.498424
v 0.527743 -0.406128 2.498424
v -0.487468 0.601176 2.498424
v -0.592686 0.495957 2.498424
v 0.527743 0.495957 2.498424
v 0.422525 0.601176 2.498424
v -0.592686 0.495957 -2.452692
v -0.487468 0.601176 -2.452692
v 0.527743 0.495957 -2.452692
v 0.422525 0.601176 -2.452692
v -0.487468 -0.511346 -2.452692
v -0.592686 -0.406128 -2.452692
v 0.527743 -0.406128 -2.452692
v 0.422525 -0.511346 -2.452692
vt 0.933691 0.115433
vt 0.967663 0.008559
vt 0.013738 0.000000
vt 0.025257 0.107672
vt 0.015502 0.271510
vt 0.954791 0.278921
vt 0.932474 0.142449
vt 0.025407 0.134797
vt 0.974649 0.011213
vt 1.000000 0.151540
vt 0.000000 0.143138
vt 0.011090 0.002578
vt 0.000207 0.172942
vt 0.998552 0.181211
vt 0.961541 0.284219
vt 0.012913 0.276754
vn 0.000000 -1.000000 0.000000
vn 0.000000 -1.000000 0.000000
vn 0.000000 -1.000000 0.000000
vn 0.000000 -1.000000 0.000000
vn -1.000000 0.000000 0.000000
vn -1.000000 0.000000 0.000000
vn -1.000000 0.000000 0.000000
vn -1.000000 0.000000 0.000000
vn 1.000000 -0.000000 0.000000
vn 1.000000 -0.000000 0.000000
vn 1.000000 -0.000000 0.000000
vn 1.000000 -0.000000 0.000000
vn 0.000000 1.000000 0.000000
vn 0.000000 1.000000 0.000000
vn 0.000000 1.000000 0.000000
vn 0.000000 1.000000 0.000000
vn -0.707107 -0.707107 0.000000
vn -0.707107 -0.707107 0.000000
vn -0.707107 -0.707107 0.000000
vn -0.707107 -0.707107 0.000000
vn 0.707106 -0.707107 0.000000
vn 0.707106 -0.707107 0.000000
vn 0.707106 -0.707107 0.000000
vn 0.707106 -0.707107 0.000000
vn -0.707107 0.707107 0.000000
vn -0.707107 0.707107 0.000000
vn -0.707107 0.707107 0.000000
vn -0.707107 0.707107 0.000000
vn 0.707106 0.707107 0.000000
vn 0.707106 0.707107 0.000000
vn 0.707106 0.707107 0.000000
vn 0.707106 0.707107 0.000000
vn 0.000000 0.000000 1.000000
vn 0.000000 0.000000 1.000000
vn 0.000000 0.000000 1.000000
vn 0.000000 0.000000 1.000000
vn 0.000000 0.000000 1.000000
vn 0.000000 0.000000 1.000000
vn 0.000000 0.000000 1.000000
vn 0.000000 0.000000 1.000000
vn -0.000000 0.000000 -1.000000
vn -0.000000 0.000000 -1.000000
vn -0.000000 0.000000 -1.000000
vn -0.000000 0.000000 -1.000000
vn -0.000000 0.000000 -1.000000
vn -0.000000 0.000000 -1.000000
vn -0.000000 0.000000 -1.000000
vn -0.000000 0.000000 -1.000000
s off
g pCube1
usemtl initialShadingGroup1
f 13/1/1 16/2/2 3/3/3 2/4/4
f 6/5/5 9/6/6 14/7/7 1/8/8
f 15/9/9 11/10/10 7/11/11 4/12/12
f 8/13/13 12/14/14 10/15/15 5/16/16
f 2/4/17 1/8/18 14/7/19 13/1/20
f 4/12/21 3/3/22 16/2/23 15/9/24
f 6/5/25 5/16/26 10/15/27 9/6/28
f 8/13/29 7/11/30 11/10/31 12/14/32
f 2/4/33 3/3/34 4/12/35 7/11/36 8/13/37 5/16/38 6/5/39 1/8/40
f 16/2/41 13/1/42 14/7/43 9/6/44 10/15/45 12/14/46 11/10/47 15/9/48
