# This file uses centimeters as units for non-parametric coordinates.

mtllib block.mtl
g default
v -0.577726 -0.416258 0.459733
v -0.472508 -0.521476 0.459733
v -0.472508 -0.416258 0.564951
v 0.437484 -0.521476 0.459733
v 0.542702 -0.416258 0.459733
v 0.437484 -0.416258 0.564951
v -0.472508 0.591045 0.459733
v -0.577726 0.485827 0.459733
v -0.472508 0.485827 0.564951
v 0.542702 0.485827 0.459733
v 0.437484 0.591045 0.459733
v 0.437484 0.485827 0.564951
v -0.472508 0.485827 -0.544467
v -0.577726 0.485827 -0.439249
v -0.472508 0.591045 -0.439249
v 0.542702 0.485827 -0.439249
v 0.437484 0.485827 -0.544467
v 0.437484 0.591045 -0.439249
v -0.472508 -0.521476 -0.439249
v -0.577726 -0.416258 -0.439249
v -0.472508 -0.416258 -0.544467
v 0.542702 -0.416258 -0.439249
v 0.437484 -0.521476 -0.439249
v 0.437484 -0.416258 -0.544467
vt 0.398477 0.773710
vt 0.601523 0.773710
vt 0.601523 0.976290
vt 0.398477 0.976290
vt 0.601523 0.023644
vt 0.601523 0.226356
vt 0.398477 0.226356
vt 0.398477 0.023644
vt 0.351290 0.226356
vt 0.148710 0.226356
vt 0.148710 0.023644
vt 0.351290 0.023644
vt 0.851290 0.023644
vt 0.851290 0.226356
vt 0.648710 0.226356
vt 0.648710 0.023644
vt 0.601523 0.273710
vt 0.601523 0.476290
vt 0.398477 0.476290
vt 0.398477 0.273710
vt 0.601523 0.523644
vt 0.601523 0.726356
vt 0.398477 0.726356
vt 0.398477 0.523644
vt 0.375000 0.976290
vt 0.375000 0.773710
vt 0.398477 0.000000
vt 0.601523 0.000000
vt 0.375000 0.023644
vt 0.375000 0.226356
vt 0.625000 0.976290
vt 0.625000 0.773710
vt 0.625000 0.023644
vt 0.625000 0.226356
vt 0.375000 0.273710
vt 0.375000 0.476290
vt 0.398477 0.250000
vt 0.601523 0.250000
vt 0.625000 0.273710
vt 0.625000 0.476290
vt 0.375000 0.523644
vt 0.375000 0.726356
vt 0.398477 0.500000
vt 0.601523 0.500000
vt 0.625000 0.523644
vt 0.625000 0.726356
vt 0.398477 0.750000
vt 0.601523 0.750000
vn 0.000000 -1.000000 0.000000
vn 0.000000 -1.000000 0.000000
vn 0.000000 -1.000000 0.000000
vn 0.000000 -1.000000 0.000000
vn 0.000000 0.000000 1.000000
vn 0.000000 0.000000 1.000000
vn 0.000000 0.000000 1.000000
vn 0.000000 0.000000 1.000000
vn -1.000000 0.000000 0.000000
vn -1.000000 0.000000 0.000000
vn -1.000000 0.000000 0.000000
vn -1.000000 0.000000 0.000000
vn 1.000000 0.000000 0.000000
vn 1.000000 0.000000 0.000000
vn 1.000000 0.000000 0.000000
vn 1.000000 0.000000 0.000000
vn 0.000000 1.000000 0.000000
vn 0.000000 1.000000 0.000000
vn 0.000000 1.000000 0.000000
vn 0.000000 1.000000 0.000000
vn 0.000000 0.000000 -1.000000
vn 0.000000 0.000000 -1.000000
vn 0.000000 0.000000 -1.000000
vn 0.000000 0.000000 -1.000000
vn -0.707107 -0.707107 0.000000
vn -0.707107 -0.707107 0.000000
vn -0.707107 -0.707107 0.000000
vn -0.707107 -0.707107 0.000000
vn 0.000000 -0.707107 0.707107
vn 0.000000 -0.707107 0.707107
vn 0.000000 -0.707107 0.707107
vn 0.000000 -0.707107 0.707107
vn -0.707107 0.000000 0.707107
vn -0.707107 0.000000 0.707107
vn -0.707107 0.000000 0.707107
vn -0.707107 0.000000 0.707107
vn 0.707107 -0.707107 0.000000
vn 0.707107 -0.707107 0.000000
vn 0.707107 -0.707107 0.000000
vn 0.707107 -0.707107 0.000000
vn 0.707107 0.000000 0.707107
vn 0.707107 0.000000 0.707107
vn 0.707107 0.000000 0.707107
vn 0.707107 0.000000 0.707107
vn -0.707107 0.707107 0.000000
vn -0.707107 0.707107 0.000000
vn -0.707107 0.707107 0.000000
vn -0.707107 0.707107 0.000000
vn 0.000000 0.707107 0.707107
vn 0.000000 0.707107 0.707107
vn 0.000000 0.707107 0.707107
vn 0.000000 0.707107 0.707107
vn 0.707107 0.707107 0.000000
vn 0.707107 0.707107 0.000000
vn 0.707107 0.707107 0.000000
vn 0.707107 0.707107 0.000000
vn -0.707107 0.000000 -0.707107
vn -0.707107 0.000000 -0.707107
vn -0.707107 0.000000 -0.707107
vn -0.707107 0.000000 -0.707107
vn 0.000000 0.707107 -0.707107
vn 0.000000 0.707107 -0.707107
vn 0.000000 0.707107 -0.707107
vn 0.000000 0.707107 -0.707107
vn 0.707107 0.000000 -0.707107
vn 0.707107 0.000000 -0.707107
vn 0.707107 0.000000 -0.707107
vn 0.707107 0.000000 -0.707107
vn 0.000000 -0.707107 -0.707107
vn 0.000000 -0.707107 -0.707107
vn 0.000000 -0.707107 -0.707107
vn 0.000000 -0.707107 -0.707107
vn -0.577350 -0.577350 0.577350
vn -0.577350 -0.577350 0.577350
vn -0.577350 -0.577350 0.577350
vn 0.577350 -0.577350 0.577350
vn 0.577350 -0.577350 0.577350
vn 0.577350 -0.577350 0.577350
vn -0.577350 0.577350 0.577350
vn -0.577350 0.577350 0.577350
vn -0.577350 0.577350 0.577350
vn 0.577350 0.577350 0.577350
vn 0.577350 0.577350 0.577350
vn 0.577350 0.577350 0.577350
vn -0.577350 0.577350 -0.577350
vn -0.577350 0.577350 -0.577350
vn -0.577350 0.577350 -0.577350
vn 0.577350 0.577350 -0.577350
vn 0.577350 0.577350 -0.577350
vn 0.577350 0.577350 -0.577350
vn -0.577350 -0.577350 -0.577350
vn -0.577350 -0.577350 -0.577350
vn -0.577350 -0.577350 -0.577350
vn 0.577350 -0.577350 -0.577350
vn 0.577350 -0.577350 -0.577350
vn 0.577350 -0.577350 -0.577350
s off
g pCube1
usemtl initialShadingGroup1
f 19/1/1 23/2/2 4/3/3 2/4/4
f 6/5/5 12/6/6 9/7/7 3/8/8
f 8/9/9 14/10/10 20/11/11 1/12/12
f 22/13/13 16/14/14 10/15/15 5/16/16
f 11/17/17 18/18/18 15/19/19 7/20/20
f 17/21/21 24/22/22 21/23/23 13/24/24
f 2/4/25 1/25/26 20/26/27 19/1/28
f 3/8/29 2/27/30 4/28/31 6/5/32
f 1/29/33 3/8/34 9/7/35 8/30/36
f 5/31/37 4/3/38 23/2/39 22/32/40
f 6/5/41 5/33/42 10/34/43 12/6/44
f 8/35/45 7/20/46 15/19/47 14/36/48
f 7/37/49 9/7/50 12/6/51 11/38/52
f 11/17/53 10/39/54 16/40/55 18/18/56
f 14/41/57 13/24/58 21/23/59 20/42/60
f 13/43/61 15/19/62 18/18/63 17/44/64
f 17/21/65 16/45/66 22/46/67 24/22/68
f 19/47/69 21/23/70 24/22/71 23/48/72
f 1/29/73 2/27/74 3/8/75
f 4/28/76 5/33/77 6/5/78
f 7/37/79 8/30/80 9/7/81
f 10/34/82 11/38/83 12/6/84
f 13/43/85 14/36/86 15/19/87
f 16/40/88 17/44/89 18/18/90
f 19/47/91 20/42/92 21/23/93
f 22/46/94 23/48/95 24/22/96
