# This file uses centimeters as units for non-parametric coordinates.

mtllib rock_4.mtl
g default
v 0.593991 0.435623 -1.614711
v -0.596639 0.377924 -1.016722
v 0.505499 4.086854 -0.183143
v -0.700205 3.376391 0.011849
v 1.919657 3.337737 1.000421
v -0.037241 2.447796 1.319408
v 1.227973 -0.014086 -0.650748
v 0.173012 0.563150 0.879592
v -0.444585 3.734298 -0.362072
v 0.335681 3.542384 1.357305
v 1.131287 2.383197 -1.469507
v 1.712964 1.034698 -0.139729
v -0.287722 3.966889 -0.309406
v 0.968658 3.890442 1.059070
v -0.602139 2.916485 -0.081392
v -0.138754 1.458392 1.157186
v -0.291395 3.416139 -0.500859
v 1.122113 3.346466 1.735359
v 0.849222 0.376495 0.355523
v 1.553719 3.862290 0.379996
v -0.761618 3.423476 0.548840
v 1.888563 1.817289 0.214833
v -0.118364 0.386970 0.514184
v -0.601208 4.551235 0.637702
v 1.677309 1.064455 0.248068
v -0.143111 4.697558 0.529333
v -0.761578 1.488360 0.845911
v -0.861334 2.192625 -0.423978
v 0.655736 4.227926 -0.021394
v 0.458673 3.811603 -0.375684
v 0.133791 3.437189 -0.415800
v -0.455325 3.424014 1.315843
v -0.264999 4.002776 1.120896
v 0.214861 4.230790 0.848579
v -0.565900 2.325601 0.151048
v 0.682204 4.143124 0.362389
v -0.481864 2.858325 0.826705
v -0.068976 0.201596 -1.600927
v 1.330697 3.488861 0.861101
v 1.027161 0.102051 -0.227067
v 0.793020 1.436102 -1.562014
v -0.953539 1.421666 -0.796919
v 0.504214 4.281110 -0.139439
v -0.792551 3.342974 0.271824
v 2.154680 3.074843 0.800557
v -0.190592 1.888233 1.435605
v 1.011782 -0.180509 -1.288164
v 0.025897 0.215402 0.889313
v -0.571741 3.393783 -0.226196
v 0.187695 3.124686 1.520455
v 0.745064 3.749764 -0.656016
v 1.518888 0.576786 -0.409630
v -0.396423 3.521476 -0.524286
v -0.546052 4.204250 0.114205
v 0.600214 3.500028 1.404281
v 1.557573 1.752761 -0.695265
v -0.384336 3.910795 -0.398349
v -0.668195 3.255781 -0.003222
v 0.059756 0.683176 0.959067
v -0.044103 3.418766 -0.387020
v 1.494666 1.768919 0.860783
v -0.477078 3.258130 -0.297444
v -0.187203 4.249146 0.005087
v 1.027567 3.599444 1.186194
v -0.507916 1.398313 1.078861
v -0.207075 3.736382 -0.475661
v 0.453882 1.964235 1.377647
v 0.493641 0.438016 0.759366
v 1.732603 1.661055 0.035056
v -0.521738 0.257857 -0.412383
v -0.510433 4.395155 0.941578
v 1.848296 0.790166 0.020563
v -0.077805 4.706432 0.787647
v -0.897204 1.843673 0.376651
v 0.279841 4.246666 0.340133
v 1.827523 1.450703 0.240156
v 0.397008 0.057243 0.325942
v -0.476596 0.639947 0.645806
v -0.741891 3.759395 0.618279
v 1.275060 0.767156 0.319078
v 1.689427 3.723593 0.342159
v -0.419204 4.831519 0.618288
v -0.685209 2.187482 0.981726
v -0.545009 2.598235 -0.146495
v 0.385467 3.984595 -0.327923
v 0.417479 2.836651 -0.798337
v -0.251717 2.719326 1.264444
v 0.142861 3.887616 1.337958
v 0.674678 4.140317 1.031185
v -0.587823 2.636688 0.060323
v 0.982928 4.039138 0.373720
v -0.710179 3.426038 0.764220
v -0.181110 2.696397 -0.449922
v 0.715715 4.177829 0.131899
v -0.908674 2.053646 -0.116096
v 0.313907 3.699938 -0.392177
v -0.463298 3.740222 1.294567
v 0.697953 4.012949 -0.115106
v -0.044632 4.252109 1.016185
v -0.483281 2.642023 0.448211
v 0.541814 4.114296 0.612391
v -0.512057 3.210362 1.174223
v -0.182191 1.917560 -1.387177
v 0.226257 3.997300 -0.166055
v 2.146728 2.684575 1.014607
v 0.352972 -0.164029 -0.754890
v -0.889682 1.304894 -0.009355
v 1.294157 0.783335 -1.070405
v 0.460869 3.569467 -0.582198
v -0.139548 3.629132 1.413425
v 1.532439 0.558162 -0.017419
v 1.477384 4.099771 -0.131415
v -0.516747 3.255040 -0.339945
v 0.452189 4.053926 1.243217
v -0.689262 3.154328 0.344771
v -0.370246 3.737656 -0.560611
v 0.368512 2.577670 1.561687
v 1.954218 0.869519 0.033389
v 0.319143 -0.085293 0.767340
v -0.246079 0.523506 0.934603
v -0.685817 3.617619 0.152277
v 0.686999 1.416004 0.812713
v 1.041796 3.814627 0.669098
v -0.418499 4.410066 0.091064
v -0.376212 3.231303 -0.255567
v -0.589720 2.385075 -0.077240
v -0.617036 3.611222 0.985981
v 0.543714 4.164199 -0.232362
v -0.332924 4.771203 0.893982
v -0.675768 2.294624 0.626927
v 0.222335 4.441893 0.625060
v -0.486535 2.103747 1.241234
vt 0.304275 0.001857
vt 0.482365 0.001857
vt 0.514232 0.158607
vt 0.390792 0.233769
vt 0.344122 0.152293
vt 0.525312 0.203971
vt 0.425286 0.400671
vt 0.353107 0.230692
vt 0.513209 0.342404
vt 0.432332 0.464396
vt 0.410337 0.485934
vt 0.399262 0.677226
vt 0.350364 0.459794
vt 0.322635 0.419129
vt 0.340833 0.346751
vt 0.529251 0.452355
vt 0.432347 0.679458
vt 0.092258 0.357629
vt 0.150817 0.237764
vt 0.177526 0.356242
vt 0.055891 0.574849
vt 0.022242 0.597466
vt 0.221804 0.240976
vt 0.164796 0.045494
vt 0.205085 0.043215
vt 0.146960 0.679458
vt 0.266994 0.546301
vt 0.235005 0.679458
vt 0.022105 0.597824
vt 0.285219 0.349758
vt 0.167991 0.004089
vt 0.201076 0.001857
vt 0.297981 0.230777
vt 0.001992 0.679458
vt 0.799789 0.930320
vt 0.802315 0.785352
vt 0.813214 0.698985
vt 0.998008 0.681217
vt 0.993081 0.859308
vt 0.802320 0.697307
vt 0.536200 0.001857
vt 0.720993 0.001857
vt 0.690660 0.162520
vt 0.611076 0.205203
vt 0.577217 0.158607
vt 0.731888 0.001857
vt 0.740574 0.135014
vt 0.655658 0.340771
vt 0.579083 0.203971
vt 0.687776 0.450538
vt 0.736997 0.331557
vt 0.626368 0.452355
vt 0.574982 0.342404
vt 0.678751 0.638100
vt 0.637892 0.679458
vt 0.793495 0.001857
vt 0.986787 0.001857
vt 0.959352 0.152293
vt 0.788364 0.083491
vt 0.826276 0.299064
vt 0.788345 0.083849
vt 0.956351 0.230692
vt 0.869818 0.419129
vt 0.847000 0.459794
vt 0.772713 0.323686
vt 0.849494 0.635821
vt 0.748636 0.443551
vt 0.936456 0.346751
vt 0.880718 0.677226
vt 0.404704 0.107292
vt 0.372380 0.407448
vt 0.094923 0.422048
vt 0.881281 0.791036
vt 0.627229 0.102258
vt 0.881999 0.059874
vt 0.358585 0.201610
vt 0.250827 0.214504
vt 0.048353 0.638568
vt 0.863200 0.261401
vt 0.469180 0.362631
vt 0.184534 0.176117
vt 0.607124 0.310536
vt 0.418088 0.453037
vt 0.238546 0.362543
vt 0.022234 0.597607
vt 0.805950 0.727215
vt 0.724136 0.072627
vt 0.473689 0.482295
vt 0.171652 0.564519
vt 0.806560 0.391210
vt 0.416906 0.566653
vt 0.459080 0.258402
vt 0.584983 0.186588
vt 0.657465 0.515443
vt 0.920875 0.332191
vt 0.184737 0.023664
vt 0.652758 0.235244
vt 0.859071 0.590947
vt 0.704994 0.285131
vt 0.393320 0.001857
vt 0.498299 0.080232
vt 0.439136 0.186537
vt 0.371485 0.170760
vt 0.324198 0.077075
vt 0.401153 0.526573
vt 0.374813 0.568510
vt 0.336500 0.439461
vt 0.331734 0.382940
vt 0.346970 0.288721
vt 0.365650 0.265399
vt 0.407059 0.334220
vt 0.406196 0.441159
vt 0.121537 0.297697
vt 0.154305 0.288944
vt 0.118969 0.475986
vt 0.040438 0.553663
vt 0.057250 0.477548
vt 0.801052 0.857836
vt 0.825690 0.750647
vt 0.905611 0.690101
vt 0.995544 0.770263
vt 0.896435 0.894814
vt 0.628597 0.001857
vt 0.693861 0.082131
vt 0.645431 0.171617
vt 0.597020 0.161160
vt 0.556709 0.080232
vt 0.890141 0.001857
vt 0.973070 0.077075
vt 0.873229 0.139265
vt 0.790929 0.042674
vt 0.348614 0.191492
vt 0.213868 0.167025
vt 0.251533 0.136996
vt 0.291600 0.290268
vt 0.247405 0.290268
vt 0.028762 0.607882
vt 0.097330 0.620019
vt 0.074476 0.679458
vt 0.012049 0.638641
vt 0.822819 0.284255
vt 0.788354 0.083670
vt 0.957852 0.191492
vt 0.902561 0.310853
vt 0.858409 0.439461
vt 0.837483 0.378242
vt 0.467955 0.318547
vt 0.519260 0.273187
vt 0.469006 0.410573
vt 0.431366 0.429954
vt 0.206263 0.273193
vt 0.157806 0.141629
vt 0.184788 0.072123
vt 0.592460 0.224571
vt 0.628768 0.274933
vt 0.636874 0.408775
vt 0.600675 0.397379
vt 0.577032 0.273187
vt 0.417752 0.482405
vt 0.216035 0.448303
vt 0.276106 0.448029
vt 0.022174 0.597645
vt 0.802318 0.741330
vt 0.807767 0.698146
vt 0.726441 0.001857
vt 0.736231 0.068436
vt 0.718198 0.161138
vt 0.480799 0.565906
vt 0.435722 0.545843
vt 0.521230 0.397379
vt 0.251000 0.612880
vt 0.190983 0.679458
vt 0.780529 0.203767
vt 0.840531 0.519443
vt 0.799065 0.539686
vt 0.760674 0.383619
vt 0.415804 0.678342
vt 0.519772 0.181289
vt 0.578150 0.181289
vt 0.683263 0.544319
vt 0.658321 0.658779
vt 0.632130 0.565906
vt 0.676693 0.401969
vt 0.946404 0.288721
vt 0.903137 0.382940
vt 0.166393 0.024792
vt 0.184534 0.002973
vt 0.203081 0.022536
vt 0.679344 0.257230
vt 0.863859 0.568510
vt 0.865106 0.656524
vt 0.738786 0.233286
vt 0.712387 0.391048
vn -0.439806 -0.344129 -0.829546
vn -0.800037 -0.382419 -0.462274
vn -0.870768 0.052417 -0.488892
vn -0.437046 0.307704 -0.845168
vn -0.777728 0.455278 -0.433429
vn -0.566797 0.501488 -0.653644
vn -0.475987 0.408863 -0.778632
vn -0.418876 0.431944 -0.798728
vn 0.457082 0.326610 -0.827286
vn 0.259007 0.125984 -0.957624
vn 0.162718 -0.165992 -0.972610
vn 0.302500 0.729327 -0.613658
vn 0.383275 0.798942 -0.463457
vn 0.359374 0.844136 -0.397850
vn 0.152483 0.739910 -0.655196
vn 0.264631 0.956971 0.119071
vn 0.073921 0.994556 -0.073448
vn -0.131762 0.988314 -0.076641
vn -0.318912 0.926382 0.200278
vn -0.453251 0.600352 -0.658894
vn 0.008670 0.378319 -0.925635
vn -0.194467 0.769162 -0.608746
vn -0.459325 0.398255 -0.793986
vn -0.045072 0.101807 -0.993783
vn 0.375353 -0.336470 -0.863654
vn 0.406366 0.293090 -0.865428
vn 0.192618 0.676395 -0.710907
vn 0.599182 0.726483 0.336458
vn 0.647528 0.666572 0.369309
vn 0.565615 0.354912 0.744391
vn 0.790617 -0.079489 0.607129
vn 0.341935 -0.087585 0.935633
vn 0.451036 -0.412573 0.791423
vn 0.417956 -0.482061 0.770020
vn 0.823756 -0.377454 0.423030
vn 0.936652 0.047571 -0.347015
vn 0.930183 0.367032 0.006932
vn 0.337445 0.561050 0.755879
vn 0.390511 -0.857981 0.333720
vn 0.529194 -0.601884 0.598072
vn -0.070807 -0.963083 0.259726
vn -0.197087 -0.980036 -0.026197
vn -0.622608 -0.761887 0.178572
vn -0.700184 -0.706260 0.104588
vn 0.479260 -0.677145 -0.558377
vn 0.688964 -0.724710 -0.011135
vn -0.829024 -0.478224 0.289864
vn -0.950701 -0.281168 0.130811
vn -0.909896 -0.202184 0.362232
vn -0.984955 0.035617 0.169103
vn -0.949677 0.310455 0.041612
vn -0.978596 0.181491 0.097007
vn 0.800052 -0.112716 -0.589247
vn 0.880716 0.088017 -0.465395
vn 0.928324 -0.043431 -0.369228
vn 0.920764 -0.297206 -0.252712
vn -0.515093 0.330720 -0.790761
vn 0.487663 0.455985 -0.744488
vn -0.052753 0.432385 0.900145
vn -0.329744 0.451723 0.828985
vn -0.510112 0.249830 0.823026
vn -0.168295 0.174536 0.970162
vn -0.489217 -0.060303 0.870075
vn -0.389706 -0.044594 0.919859
vn -0.442050 0.080077 0.893409
vn -0.217298 0.065415 0.973911
vn 0.098197 0.220971 0.970324
vn 0.851107 -0.476539 0.220289
vn 0.430394 -0.474943 0.767587
vn 0.637854 -0.647047 0.417700
vn 0.892374 0.308252 -0.329622
vn 0.954767 0.081407 -0.285993
vn 0.781151 0.386297 -0.490487
vn -0.018531 0.850708 -0.525312
vn 0.319290 0.854703 0.409313
vn 0.374557 0.790093 0.485242
vn -0.415095 -0.461479 -0.784049
vn -0.901685 -0.154863 -0.403709
vn -0.939671 -0.201230 -0.276632
vn -0.791274 -0.149376 -0.592935
vn -0.928119 0.044664 -0.369596
vn -0.901180 0.138669 -0.410665
vn -0.893636 0.201028 -0.401251
vn -0.557467 -0.042661 -0.829102
vn -0.018588 0.289343 0.957045
vn 0.129905 0.668279 0.732480
vn 0.451039 0.865821 0.216606
vn 0.446259 0.802559 0.395920
vn 0.081082 0.537220 0.839536
vn -0.988356 -0.108094 0.107088
vn -0.996231 0.047477 0.072592
vn -0.947422 -0.299385 0.112963
vn -0.983857 -0.028000 0.176754
vn -0.938899 -0.210405 0.272393
vn -0.993746 -0.041969 0.103475
vn -0.992403 -0.051016 -0.111952
vn -0.320110 0.281101 -0.904717
vn -0.548188 0.531238 -0.645969
vn 0.259537 -0.417156 0.870989
vn -0.250582 -0.011090 0.968032
vn -0.137437 -0.266927 0.953866
vn 0.116659 -0.361179 0.925170
vn 0.993033 -0.098758 -0.064278
vn 0.547425 -0.290810 0.784701
vn 0.022107 -0.928169 0.371502
vn 0.307323 -0.130748 0.942580
vn -0.415565 -0.746307 0.519935
vn -0.497139 -0.475555 0.725741
vn 0.197673 -0.260015 0.945155
vn -0.551633 -0.276410 0.786955
vn -0.983590 0.170232 0.059760
vn -0.944399 0.328613 0.011121
vn -0.914461 0.261961 -0.308443
vn -0.940954 0.199276 -0.273670
vn 0.350117 -0.421917 0.836304
vn 0.697594 0.715798 0.031557
vn 0.471972 0.881474 0.015696
vn -0.404305 0.880759 -0.246579
vn -0.351142 0.699032 -0.622939
vn -0.778312 0.363929 -0.511650
vn -0.415993 0.004597 -0.909356
vn -0.854688 0.462214 0.236361
vn -0.688221 0.277339 0.670399
vn -0.895367 0.060854 0.441151
vn -0.793993 -0.068969 0.604002
vn 0.479734 0.420806 -0.769921
vn 0.582812 0.714071 0.387857
vn -0.111765 0.665322 0.738143
vn -0.943604 0.330995 0.007409
vn -0.946100 0.122265 0.299911
vn 0.672192 0.730863 0.118314
vn -0.678136 -0.012873 0.734823
s 1
g pCube1
usemtl initialShadingGroup
f 38/100/1 2/2/2 42/101/3 103/70/4
f 42/101/3 28/3/5 93/102/6 103/70/4
f 93/102/6 31/4/7 86/103/8 103/70/4
f 86/103/8 11/5/9 41/104/10 103/70/4
f 41/104/10 1/1/11 38/100/1 103/70/4
f 63/105/12 26/12/13 75/106/14 104/71/15
f 75/106/14 36/13/16 94/107/17 104/71/15
f 94/107/17 29/14/18 43/108/19 104/71/15
f 43/108/19 3/15/20 85/109/21 104/71/15
f 85/109/21 30/8/22 96/110/23 104/71/15
f 96/110/23 31/4/7 60/111/24 104/71/15
f 60/111/24 17/7/25 66/112/26 104/71/15
f 66/112/26 13/11/27 63/105/12 104/71/15
f 39/113/28 14/19/29 64/114/30 105/72/31
f 64/114/30 18/20/32 61/115/33 105/72/31
f 61/115/33 25/21/34 76/116/35 105/72/31
f 76/116/35 22/22/36 45/117/37 105/72/31
f 45/117/37 5/18/38 39/113/28 105/72/31
f 40/118/39 19/36/40 77/119/41 106/73/42
f 77/119/41 23/37/43 70/120/44 106/73/42
f 70/120/44 2/38/2 38/121/1 106/73/42
f 38/121/1 1/39/11 47/122/45 106/73/42
f 47/122/45 7/35/46 40/118/39 106/73/42
f 70/123/44 23/42/43 78/124/47 107/74/48
f 78/124/47 27/43/49 74/125/50 107/74/48
f 74/125/50 35/44/51 95/126/52 107/74/48
f 95/126/52 28/45/5 42/127/3 107/74/48
f 42/127/3 2/41/2 70/123/44 107/74/48
f 47/128/45 1/57/11 41/129/10 108/75/53
f 41/129/10 11/58/9 56/130/54 108/75/53
f 56/130/54 12/59/55 52/131/56 108/75/53
f 52/131/56 7/56/46 47/128/45 108/75/53
f 86/103/8 31/4/7 96/110/23 109/76/57
f 96/110/23 30/8/22 51/132/58 109/76/57
f 51/132/58 11/5/9 86/103/8 109/76/57
f 88/133/59 33/25/60 97/134/61 110/77/62
f 97/134/61 32/33/63 87/135/64 110/77/62
f 87/135/64 6/30/65 50/136/66 110/77/62
f 50/136/66 10/23/67 88/133/59 110/77/62
f 72/137/68 25/21/34 80/138/69 111/78/70
f 80/138/69 19/26/40 40/139/39 111/78/70
f 40/139/39 7/34/46 52/140/56 111/78/70
f 52/140/56 12/29/55 72/137/68 111/78/70
f 81/141/71 22/61/36 69/142/72 112/79/73
f 69/142/72 12/59/55 56/130/54 112/79/73
f 56/130/54 11/58/9 51/143/58 112/79/73
f 51/143/58 30/62/22 98/144/74 112/79/73
f 98/144/74 29/63/18 94/145/17 112/79/73
f 94/145/17 36/64/16 91/146/75 112/79/73
f 91/146/75 20/60/76 81/141/71 112/79/73
f 62/147/77 15/6/78 58/148/79 113/80/80
f 58/148/79 4/9/81 49/149/82 113/80/80
f 49/149/82 9/10/83 53/150/84 113/80/80
f 53/150/84 17/7/25 62/147/77 113/80/80
f 55/151/85 18/20/32 64/114/30 114/81/86
f 64/114/30 14/19/29 89/152/87 114/81/86
f 89/152/87 34/24/88 99/153/89 114/81/86
f 99/153/89 33/25/60 88/133/59 114/81/86
f 88/133/59 10/23/67 55/151/85 114/81/86
f 90/154/90 35/44/51 100/155/91 115/82/92
f 100/155/91 37/48/93 92/156/94 115/82/92
f 92/156/94 21/52/95 44/157/96 115/82/92
f 44/157/96 4/53/81 58/158/79 115/82/92
f 58/158/79 15/49/78 90/154/90 115/82/92
f 66/112/26 17/7/25 53/150/84 116/83/97
f 53/150/84 9/10/83 57/159/98 116/83/97
f 57/159/98 13/11/27 66/112/26 116/83/97
f 67/160/99 18/20/32 55/151/85 117/84/100
f 55/151/85 10/23/67 50/136/66 117/84/100
f 50/136/66 6/30/65 46/161/101 117/84/100
f 46/161/101 16/27/102 67/160/99 117/84/100
f 76/116/35 25/21/34 72/137/68 118/85/103
f 72/137/68 12/29/55 69/162/72 118/85/103
f 69/162/72 22/22/36 76/116/35 118/85/103
f 77/119/41 19/36/40 68/163/104 119/86/105
f 68/163/104 8/40/106 48/164/107 119/86/105
f 48/164/107 23/37/43 77/119/41 119/86/105
f 78/124/47 23/42/43 48/165/107 120/87/108
f 48/165/107 8/46/106 59/166/109 120/87/108
f 59/166/109 16/47/102 65/167/110 120/87/108
f 65/167/110 27/43/49 78/124/47 120/87/108
f 79/168/111 24/17/112 54/169/113 121/88/114
f 54/169/113 9/10/83 49/149/82 121/88/114
f 49/149/82 4/9/81 44/170/96 121/88/114
f 44/170/96 21/16/95 79/168/111 121/88/114
f 80/138/69 25/21/34 61/115/33 122/89/115
f 61/115/33 18/20/32 67/160/99 122/89/115
f 67/160/99 16/27/102 59/171/109 122/89/115
f 59/171/109 8/28/106 68/172/104 122/89/115
f 68/172/104 19/26/40 80/138/69 122/89/115
f 45/173/37 22/61/36 81/141/71 123/90/116
f 81/141/71 20/60/76 91/146/75 123/90/116
f 91/146/75 36/64/16 101/174/117 123/90/116
f 101/174/117 34/66/88 89/175/87 123/90/116
f 89/175/87 14/67/29 39/176/28 123/90/116
f 39/176/28 5/65/38 45/173/37 123/90/116
f 82/177/118 26/12/13 63/105/12 124/91/119
f 63/105/12 13/11/27 57/159/98 124/91/119
f 57/159/98 9/10/83 54/169/113 124/91/119
f 54/169/113 24/17/112 82/177/118 124/91/119
f 93/102/6 28/3/5 84/178/120 125/92/121
f 84/178/120 15/6/78 62/147/77 125/92/121
f 62/147/77 17/7/25 60/111/24 125/92/121
f 60/111/24 31/4/7 93/102/6 125/92/121
f 95/126/52 35/44/51 90/154/90 126/93/122
f 90/154/90 15/49/78 84/179/120 126/93/122
f 84/179/120 28/45/5 95/126/52 126/93/122
f 97/180/61 33/54/60 71/181/123 127/94/124
f 71/181/123 24/55/112 79/182/111 127/94/124
f 79/182/111 21/52/95 92/156/94 127/94/124
f 92/156/94 37/48/93 102/183/125 127/94/124
f 102/183/125 32/50/63 97/180/61 127/94/124
f 98/144/74 30/62/22 85/184/21 128/95/126
f 85/184/21 3/68/20 43/185/19 128/95/126
f 43/185/19 29/63/18 98/144/74 128/95/126
f 99/153/89 34/24/88 73/186/127 129/96/128
f 73/186/127 26/31/13 82/187/118 129/96/128
f 82/187/118 24/32/112 71/188/123 129/96/128
f 71/188/123 33/25/60 99/153/89 129/96/128
f 100/155/91 35/44/51 74/125/50 130/97/129
f 74/125/50 27/43/49 83/189/130 130/97/129
f 83/189/130 37/48/93 100/155/91 130/97/129
f 101/174/117 36/64/16 75/190/14 131/98/131
f 75/190/14 26/69/13 73/191/127 131/98/131
f 73/191/127 34/66/88 101/174/117 131/98/131
f 102/183/125 37/48/93 83/189/130 132/99/132
f 83/189/130 27/43/49 65/167/110 132/99/132
f 65/167/110 16/47/102 46/192/101 132/99/132
f 46/192/101 6/51/65 87/193/64 132/99/132
f 87/193/64 32/50/63 102/183/125 132/99/132
